<?xml version="1.0" encoding="UTF-8"?><svg id="Layer_2" xmlns="http://www.w3.org/2000/svg" width="415.97" height="144.34" viewBox="0 0 415.97 144.34"><defs><style>.cls-1{fill:#fff;}.cls-2{fill:none;}</style></defs><g id="Layer_1-2"><path class="cls-2" d="M170.95,26.13c0-14.25-4.19-17.1-15.51-17.1h-11.06v32.39l.04-.04h10.41c11.4,0,16.11-3.89,16.11-15.25Z"/><path class="cls-2" d="M285.75,114.54h-6.22v11.92h6.13c3.58,0,5.7-2.33,5.7-6.05s-2.12-5.87-5.61-5.87Z"/><path class="cls-1" d="M49.63,0h-12.65v10.28H15.85v21.47H0v31.53h15.85v21.47h21.08v10.28h11.19c26.09,0,49.11-21.08,49.11-47.38S75.8,0,49.63,0Z"/><polygon class="cls-1" points="303.76 9.07 314.78 9.07 314.78 85.91 303.76 85.91 303.76 89.88 341.94 89.88 341.94 85.91 330.97 85.91 330.97 9.07 341.94 9.07 341.94 5.05 303.76 5.05 303.76 9.07"/><path class="cls-1" d="M414.59,5.01h-67.94l-1.38,22.37h4.02c2.33-16.24,5.31-20.08,23.24-19.18v77.7h-11.7v3.97h39.69v-3.97h-11.7V8.21c17.88-.91,20.95,2.94,23.24,19.18h3.93l-1.38-22.37Z"/><path class="cls-1" d="M269.34,10.37v75.54h-10.93v3.97h38.14v-3.97h-10.93V9.03h10.88v-4.06h-31.31l-18.4,58.05-17.75-58.05h-31.18v4.02h10.97v76.88h-11.83c-11.01.26-11.19-9.11-11.14-11.06.17-20.69-4.49-28.2-24.32-31.27v-.26c11.83-1.25,26.95-4.62,26.95-18.96,0-17.67-16.46-19.31-30.36-19.31h-40.9v4.02h10.97v76.88h-10.97v4.02h38.18v-4.02h-10.97v-40.51c7.04-.26,14.99,1.51,18.53,4.58,3.33,2.81,5.1,11.53,5.1,22.03,0,12.96,6.69,17.88,19.57,17.88h36.8v-3.97h-10.71V10.37h.26l25.27,79.56h4.28l25.44-79.56h.39ZM144.43,41.38l-.04.04V9.03h11.06c11.32,0,15.51,2.85,15.51,17.1,0,11.36-4.71,15.25-16.11,15.25h-10.41Z"/><path class="cls-1" d="M148.75,113.51v18.36c0,5.05-3.15,8.03-7.95,8.03s-7.95-2.94-7.95-7.95v-18.44c0-2.12-.91-3.02-3.02-3.02h-4.75v4.06h2.03c.65,0,1.04.35,1.04,1.04h-.04s0,16.54,0,16.54c0,7.26,5.18,12.22,12.74,12.22s12.61-4.97,12.61-12.22v-16.54c0-.69.39-1.04,1.04-1.04h2.03v-4.06h-4.71c-2.12,0-3.07.91-3.07,3.02Z"/><path class="cls-1" d="M184.43,113.51v18.05c0,1.9.35,4.53.35,4.53h-.09s-1.55-2.76-2.76-4.53l-14.81-21.08h-4.28v28.16c0,.65-.39,1.04-1.04,1.04h-2.03v4.06h4.75c2.12,0,3.02-.91,3.02-3.02v-18.05c0-1.86-.3-4.54-.3-4.54h.09s1.51,2.76,2.72,4.54l14.86,21.08h4.23v-28.16c0-.69.39-1.04,1.04-1.04h2.03v-4.06h-4.71c-2.16,0-3.07.91-3.07,3.02Z"/><polygon class="cls-1" points="197.34 114.54 200.58 114.54 200.58 139.68 197.34 139.68 197.34 143.74 208.31 143.74 208.31 139.68 205.07 139.68 205.07 114.54 208.31 114.54 208.31 110.48 197.34 110.48 197.34 114.54"/><path class="cls-1" d="M235,113.2l-7.3,20.52c-.65,1.81-1.25,4.58-1.25,4.58h-.09s-.65-2.81-1.25-4.58l-7.3-20.52c-.78-2.2-1.6-2.72-3.93-2.72h-2.63v4.06h.65c.82,0,1.25.17,1.55,1.04h-.04l10.45,28.16h5.01l10.45-28.16c.3-.86.69-1.04,1.55-1.04h.65v-4.06h-2.63c-2.33,0-3.11.52-3.89,2.72Z"/><path class="cls-1" d="M263.9,138.69c0,.65-.39,1.04-1.04,1.04h-9.72c-.65,0-1.04-.39-1.04-1.04v-9.67h11.62v-4.06h-11.62v-10.41h9.46c.65,0,1.04.35,1.04,1.04v2.12h4.28v-4.19c0-2.12-.91-3.02-3.02-3.02h-19.57v4.06h3.07v26.22c0,2.12.91,3.02,3.02,3.02h14.81c2.12,0,3.02-.91,3.02-3.02v-4.19h-4.32v2.12Z"/><path class="cls-1" d="M295.64,138.6l-4.02-7.95c-.56-1.08-1.43-1.51-1.43-1.51v-.09c2.38-.52,6-3.24,6-8.81,0-6.09-4.1-9.76-9.93-9.76h-14.51v4.06h3.07v29.2h4.71v-13.26h4.32c1.81,0,2.42.26,3.28,1.81l4.54,8.94c1.08,2.16,2.03,2.51,4.62,2.51h2.33v-4.06h-.6c-1.17,0-1.9-.09-2.38-1.08ZM285.67,126.46h-6.13v-11.92h6.22c3.5,0,5.61,2.16,5.61,5.87s-2.12,6.05-5.7,6.05Z"/><path class="cls-1" d="M307.43,118.69c0-2.51,2.25-4.49,5.83-4.49,2.63,0,5.14,1.3,5.14,3.02v1.55h4.32v-2.72c0-4.54-5.92-6.13-9.46-6.13-6.31,0-10.67,3.89-10.67,8.9,0,10.37,16.07,9.29,16.07,16.24,0,3.07-2.59,4.97-5.7,4.97-4.75,0-8.09-3.73-8.31-3.99l-2.74,3.3s3.93,4.97,11.01,4.97c6.56,0,10.54-4.36,10.54-9.46,0-10.93-16.02-9.42-16.02-16.15Z"/><path class="cls-1" d="M304.63,136.01s.01.02.02.03l.02-.03h-.04Z"/><polygon class="cls-1" points="328.38 114.54 331.62 114.54 331.62 139.68 328.38 139.68 328.38 143.74 339.35 143.74 339.35 139.68 336.11 139.68 336.11 114.54 339.35 114.54 339.35 110.48 328.38 110.48 328.38 114.54"/><path class="cls-1" d="M368.12,110.53h-22.89c-2.12,0-2.81.69-2.81,2.81v4.36h4.19v-2.12c0-.69.39-1.04,1.04-1.04h6.65v29.2h4.71v-29.2h6.69c.65,0,1.04.35,1.04,1.04v2.12h4.19v-4.36c0-2.12-.69-2.81-2.81-2.81Z"/><path class="cls-1" d="M393.9,113.03l-5.01,8.38c-1.12,1.81-2.03,3.71-2.03,3.71h-.09s-.95-1.86-2.03-3.71l-5.05-8.38c-1.34-2.2-2.25-2.55-4.49-2.55h-2.16v4.06h.95c.99,0,1.43.17,2.03,1.17l8.42,13.52h.04v14.51h4.71v-14.51l8.38-13.52c.6-.99,1.08-1.17,2.07-1.17h.91v-4.06h-2.16c-2.25,0-3.2.35-4.49,2.55Z"/></g></svg>